# AST/ASF file generated using VICON BodyLanguage
# -----------------------------------------------
:version 1.10
:name VICON
:units
  mass 1.0
  length 0.45
  angle deg
:documentation
   .ast/.asf automatically generated from VICON data using
   VICON BodyBuilder and BodyLanguage model FoxedUp or BRILLIANT.MOD
:root
   order TX TY TZ RX RY RZ
   axis XYZ
   position 0 0 0  
   orientation 0 0 0 
:bonedata
  begin
     id 1 
     name lhipjoint
     direction 0.702568 -0.596508 0.388042 
     length 2.56661 
     axis 0 0 0  XYZ
  end
  begin
     id 2 
     name lfemur
     direction 0.34202 -0.939693 0  
     length 6.58374  
     axis 0 0 20  XYZ
    dof rx ry rz
    limits (-160.0 20.0)
           (-70.0 70.0)
           (-60.0 70.0)
  end
  begin
     id 3 
     name ltibia
     direction 0.34202 -0.939693 0   
     length 6.62538   
     axis 0 0 20   XYZ
    dof rx
    limits (-10.0 170.0)
  end
  begin
     id 4 
     name lfoot
     direction 0.10455 -0.287249 0.952133   
     length 2.26699   
     axis -90 7.62852e-016 20   XYZ
    dof rx rz
    limits (-45.0 90.0)
           (-70.0 20.0)
  end
  begin
     id 5 
     name ltoes
     direction 1.53572e-011 -4.22322e-011 1   
     length 1.12949   
     axis -90 7.62852e-016 20   XYZ
    dof rx
    limits (-90.0 20.0)
  end
  begin
     id 6 
     name rhipjoint
     direction -0.728055 -0.574632 0.373811   
     length 2.66432  
     axis 0 0 0  XYZ 
  end
  begin
     id 7 
     name rfemur
     direction -0.34202 -0.939693 0   
     length 6.66732   
     axis 0 0 -20   XYZ
    dof rx ry rz
    limits (-160.0 20.0)
           (-70.0 70.0)
           (-70.0 60.0)
  end
  begin
     id 8 
     name rtibia
     direction -0.34202 -0.939693 0   
     length 6.59288   
     axis 0 0 -20   XYZ
    dof rx
    limits (-10.0 170.0)
 end
 begin
     id 9 
     name rfoot
     direction -0.119193 -0.327479 0.93731   
     length 2.38061  
     axis -90 -7.62852e-016 -20   XYZ
    dof rx rz
    limits (-45.0 90.0)
           (-20.0 70.0)
  end
  begin
     id 10 
     name rtoes
     direction -1.53547e-011 -4.21827e-011 1   
     length 1.17899   
     axis -90 -7.62852e-016 -20   XYZ
    dof rx
    limits (-90.0 20.0)
  end
  begin
     id 11 
     name lowerback
     direction -0.000416114 0.999912 -0.0132284   
     length 2.12109   
     axis 0 0 0   XYZ
    dof rx ry rz
    limits (-20.0 45.0)
           (-30.0 30.0)
           (-30.0 30.0)
  end
  begin
     id 12 
     name upperback
     direction -0.00136371 0.99809 0.0617608   
     length 2.10067   
     axis 0 0 0   XYZ
    dof rx ry rz
    limits (-20.0 45.0)
           (-30.0 30.0)
           (-30.0 30.0)
  end
  begin
     id 13 
     name thorax
     direction -3.43026e-005 0.997776 0.0666515   
     length 2.10618   
     axis 0 0 0   XYZ
    dof rx ry rz
    limits (-20.0 45.0)
           (-30.0 30.0)
           (-30.0 30.0)
  end
  begin
     id 14 
     name lowerneck
     direction 0.0398646 0.998418 0.0396592   
     length 1.83817   
     axis 0 0 0   XYZ
    dof rx ry rz
    limits (-20.0 45.0)
           (-30.0 30.0)
           (-30.0 30.0)
  end
  begin
     id 15 
     name upperneck
     direction -0.0367268 0.961527 -0.272244   
     length 1.81975   
     axis 0 0 0   XYZ
    dof rx ry rz
    limits (-20.0 45.0)
           (-30.0 30.0)
           (-30.0 30.0)
  end
  begin
     id 16
     name head
     direction -0.0182665 0.99536 -0.0944669  
     length 1.86026  
     axis 0 0 0   XYZ
    dof rx ry rz
    limits (-20.0 45.0)
           (-30.0 30.0)
           (-30.0 30.0)
  end
  begin
     id 17 
     name lclavicle
     direction 0.924239 0.361045 0.124212  
     length 3.26878  
     axis 0 0 0   XYZ
    dof ry rz
    limits (-20.0 10.0)
           (0.0 20.0)
  end
  begin
     id 18 
     name lhumerus
     direction 1 -4.48968e-011 -2.56583e-027   
     length 4.58538   
     axis 180 -30 -90   XYZ
    dof rx ry rz
    limits (-60.0 90.0)
           (-90.0 90.0)
           (-90.0 90.0)
  end
  begin
     id 19
     name lradius
     direction 1 -4.4898e-011 -5.50375e-027   
     length 2.68935   
     axis 180 -30 -90   XYZ
    dof rx
    limits (-10.0 170.0)
  end
  begin
     id 20
     name lwrist
     direction 1 -4.48939e-011 -1.48955e-026   
     length 1.34468   
     axis 9.0955e-015 90 90   XYZ
    dof ry
    limits (-180.0 0.0)
 end
  begin
     id 21 
     name lhand
     direction 1 -4.48936e-011 -2.97907e-026   
     length 0.585058   
     axis 1.90115e-014 90 90   XYZ
    dof rx rz
    limits (-90.0 90.0)
           (-45.0 45.0)
  end
  begin
     id 22 
     name lfingers
     direction 1 -4.49082e-011 -5.96235e-026   
     length 0.471689   
     axis 3.80223e-014 90 90   XYZ
    dof rx
    limits (0.0 90.0)
  end
  begin
     id 23
     name lthumb
     direction 0.707107 -6.3489e-011 0.707107   
     length 0.677253   
     axis -90 45 -3.84942e-014   XYZ
    dof rx rz
    limits (-45.0 45.0)
           (-45.0 45.0)
  end
  begin
     id 24 
     name rclavicle
     direction -0.923098 0.371783 0.0983239   
     length 3.19656  
     axis 0 0 0   XYZ 
    dof ry rz
    limits (-10.0 20.0)
           (-20.0 0.0)
  end
  begin
     id 25 
     name rhumerus
     direction -1 -4.48976e-011 -2.5492e-027  
     length 4.4745   
     axis 180 30 90   XYZ
    dof rx ry rz
    limits (-90.0 60.0)
           (-90.0 90.0)
           (-90.0 90.0)
  end
  begin
     id 26 
     name rradius
     direction -1 -4.48941e-011 -4.36555e-027   
     length 2.93896   
     axis 180 30 90   XYZ
    dof rx
    limits (-10.0 170.0)
  end
  begin
     id 27 
     name rwrist
     direction -1 -4.49044e-011 -1.49032e-026   
     length 1.46948   
     axis 9.0955e-015 -90 -90   XYZ
    dof ry
    limits (-180.0 0.0)
  end
  begin
     id 28
     name rhand
     direction -1 -4.48826e-011 -2.97749e-026   
     length 0.405092   
     axis 1.90115e-014 -90 -90   XYZ
    dof rx rz
    limits (-90.0 90.0)
           (-45.0 45.0)
  end
  begin
     id 29
     name rfingers
     direction -1 -4.49209e-011 -5.96602e-026   
     length 0.326596   
     axis 3.80223e-014 -90 -90   XYZ
    dof rx
    limits (0.0 90.0)
  end
  begin
     id 30
     name rthumb
     direction -0.707107 -6.34776e-011 0.707107   
     length 0.468928   
     axis -90 -45 3.84942e-014   XYZ
    dof rx rz
    limits (-45.0 45.0)
           (-45.0 45.0)
  end
:hierarchy
  begin
    root lhipjoint rhipjoint lowerback
    lhipjoint lfemur
    lfemur ltibia
    ltibia lfoot
    lfoot ltoes
    rhipjoint rfemur
    rfemur rtibia
    rtibia rfoot
    rfoot rtoes
    lowerback upperback
    upperback thorax
    thorax lowerneck lclavicle rclavicle
    lowerneck upperneck
    upperneck head
    lclavicle lhumerus
    lhumerus lradius
    lradius lwrist
    lwrist lhand lthumb
    lhand lfingers
    rclavicle rhumerus
    rhumerus rradius
    rradius rwrist
    rwrist rhand rthumb
    rhand rfingers
  end

#!OML:ASF H:\Punching\Project 1\Capture day 1\Session 1\female.ASF
:FULLY-SPECIFIED
:DEGREES
83
root 1.44579 15.7217 6.04038 10.7289 -2.9806 -3.84576
lowerback -5.37161 -0.687297 4.02507
upperback -7.74715 -0.964375 1.10673
thorax -5.08772 -0.669116 -1.10752
lowerneck -8.38236 4.38465 10.8231
upperneck 34.5463 6.10736 -6.05209
head 13.6098 3.33207 -3.46406
rclavicle 2.08631e-014 -1.79279e-014
rhumerus -40.705 -15.4219 -70.9992
rradius 27.4003
rwrist 2.66891
rhand -10.2572 -7.86056
rfingers 7.12502
rthumb 15.7359 -37.2408
lclavicle 2.08631e-014 -1.79279e-014
lhumerus -45.0467 16.0572 72.21
lradius 33.1041
lwrist -13.3838
lhand -9.84617 17.3149
lfingers 7.12502
lthumb 16.1318 46.6635
rfemur -12.533 11.589 19.9652
rtibia 21.3429
rfoot -14.7983 -28.8804
rtoes 0.233458
lfemur -15.7283 -14.1789 -10.4294
ltibia 25.8807
lfoot -18.687 20.7948
ltoes -1.29335
84
root 1.44991 15.722 6.04102 10.7588 -3.00909 -3.85626
lowerback -5.34381 -0.683618 4.01637
upperback -7.74487 -0.95835 1.09727
thorax -5.10057 -0.666135 -1.11203
lowerneck -8.41511 4.38404 10.8284
upperneck 34.4408 6.09872 -6.0584
head 13.5693 3.32587 -3.46552
rclavicle 9.82276e-015 -1.06847e-014
rhumerus -40.6419 -15.1191 -71.2614
rradius 27.6999
rwrist 1.70209
rhand -10.0549 -8.27709
rfingers 7.12502
rthumb 15.9308 -37.6419
lclavicle 9.82276e-015 -1.06847e-014
lhumerus -45.006 15.9795 72.3268
lradius 33.2848
lwrist -13.3784
lhand -10.0055 17.4824
lfingers 7.12502
lthumb 15.9783 46.8434
rfemur -12.5579 11.623 19.9486
rtibia 21.3188
rfoot -14.7784 -28.8871
rtoes 0.225337
lfemur -15.7655 -14.1421 -10.433
ltibia 25.9055
lfoot -18.695 20.7916
ltoes -1.28089
85
root 1.45422 15.7223 6.04164 10.7878 -3.03911 -3.8645
lowerback -5.31186 -0.68018 4.00527
upperback -7.74184 -0.952437 1.08736
thorax -5.11491 -0.663108 -1.11563
lowerneck -8.44811 4.38289 10.8326
upperneck 34.3241 6.09002 -6.06773
head 13.524 3.31897 -3.46772
rclavicle -2.34038e-014 3.18055e-014
rhumerus -40.5774 -14.7698 -71.5564
rradius 28.0373
rwrist 0.635476
rhand -9.84783 -8.77622
rfingers 7.12502
rthumb 16.1302 -38.125
lclavicle -2.34038e-014 3.18055e-014
lhumerus -44.972 15.8839 72.4583
lradius 33.5128
lwrist -13.3305
lhand -10.1573 17.6861
lfingers 7.12502
lthumb 15.8322 47.0588
rfemur -12.5816 11.6559 19.9284
rtibia 21.2931
rfoot -14.7568 -28.8913
rtoes 0.207669
lfemur -15.8024 -14.1078 -10.4403
ltibia 25.9314
lfoot -18.7042 20.7927
ltoes -1.26649
86
root 1.45869 15.7225 6.04231 10.8155 -3.07077 -3.87065
lowerback -5.2785 -0.675826 3.99305
upperback -7.73568 -0.945374 1.07561
thorax -5.12664 -0.659418 -1.12055
lowerneck -8.48153 4.38068 10.8364
upperneck 34.1933 6.08019 -6.0801
head 13.4726 3.31094 -3.4709
rclavicle -4.84538e-016 2.21893e-014
rhumerus -40.5069 -14.3664 -71.8946
rradius 28.3956
rwrist -0.572682
rhand -9.72077 -9.25708
rfingers 7.12502
rthumb 16.2525 -38.5959
lclavicle -4.84538e-016 2.21893e-014
lhumerus -44.9374 15.757 72.6129
lradius 33.7923
lwrist -13.2102
lhand -10.3011 17.9328
lfingers 7.12502
lthumb 15.6937 47.3164
rfemur -12.603 11.6909 19.9051
rtibia 21.2671
rfoot -14.7353 -28.8962
rtoes 0.183096
lfemur -15.8375 -14.0776 -10.4513
ltibia 25.9576
lfoot -18.7168 20.7986
ltoes -1.23717
87
root 1.46329 15.7228 6.04296 10.842 -3.10321 -3.87126
lowerback -5.2417 -0.671539 3.97562
upperback -7.72736 -0.938306 1.06105
thorax -5.13792 -0.655499 -1.12546
lowerneck -8.51723 4.37821 10.8436
upperneck 34.0502 6.06999 -6.09711
head 13.4167 3.30241 -3.47623
rclavicle 1.8577e-014 -3.18552e-014
rhumerus -40.4323 -13.8968 -72.2827
rradius 28.7803
rwrist -1.92613
rhand -9.67991 -9.72544
rfingers 7.12502
rthumb 16.2919 -39.061
lclavicle 1.8577e-014 -3.18552e-014
lhumerus -44.904 15.5851 72.7994
lradius 34.1367
lwrist -12.9909
lhand -10.438 18.2421
lfingers 7.12502
lthumb 15.5619 47.636
rfemur -12.6234 11.729 19.875
rtibia 21.2414
rfoot -14.7154 -28.9049
rtoes 0.159788
lfemur -15.8711 -14.0507 -10.4697
ltibia 25.9829
lfoot -18.7291 20.81
ltoes -1.20454
